<mxfile host="app.diagrams.net" modified="2024-01-15T08:31:53.255Z" agent="Mozilla/5.0 (Macintosh; Intel Mac OS X 10_15_7) AppleWebKit/537.36 (KHTML, like Gecko) Chrome/120.0.0.0 Safari/537.36" version="22.1.18" etag="prPvk9m-sc3ybM7Z4_eA" type="github">
  <diagram name="第 1 页" id="gSknduPZbgnSZruIwtJH">
    <mxGraphModel>
      <root>
        <mxCell id="0" />
        <mxCell id="1" parent="0" />
      </root>
    </mxGraphModel>
  </diagram>
</mxfile>
